<?xml version="1.0" encoding="utf-8"?>
<!-- Generator: Adobe Illustrator 17.0.0, SVG Export Plug-In . SVG Version: 6.00 Build 0)  -->
<!DOCTYPE svg PUBLIC "-//W3C//DTD SVG 1.1//EN" "http://www.w3.org/Graphics/SVG/1.1/DTD/svg11.dtd">
<svg version="1.1" id="Layer_1" xmlns="http://www.w3.org/2000/svg" xmlns:xlink="http://www.w3.org/1999/xlink" x="0px" y="0px"
	 width="115.801px" height="125.096px" viewBox="0 0 115.801 125.096" enable-background="new 0 0 115.801 125.096"
	 xml:space="preserve">
<path fill="#5FCF80" d="M104.955,90.563c0,7.443-0.023,14.91,0.015,22.377c0.011,2.111-0.948,3.373-2.851,4.193
	c-21.449,9.247-43.047,11.772-64.469,0.345c-18.042-9.624-24.771-25.676-23.853-45.394C14.65,53.74,24.44,41.082,39.94,32.276
	c0.526-0.299,1.241-0.264,2.489-0.503c-1.986,4.762-3.809,9.06-5.571,13.383c-1.438,3.53-0.576,5.193,3.61,5.132
	c11.66-0.167,23.324-0.018,34.987-0.07c5.02-0.022,5.823-1.101,4.901-6.043c-2.966-15.91-14.292-22.785-32.165-19.898
	C30.713,27.1,16.183,35.029,4.606,48.413C3.33,49.887,1.946,51.267,0,53.345c0.055-5.526,1.243-9.931,2.875-14.157
	C10.732,18.844,24.407,4.75,46.552,1.086c22.606-3.74,42.377,1.968,57.138,20.432c9.384,11.738,11.856,25.791,12.012,40.385
	c0.123,11.497,1.362,10.289-9.885,10.307c-20.827,0.033-41.654-0.047-62.481-0.023c-7.348,0.008-8.189,1.338-5.718,8.35
	c4.302,12.21,14.693,15.547,25.842,17.387c12.371,2.042,24.127-0.8,35.524-5.509c1.537-0.635,3.057-1.313,4.604-1.924
	C103.859,90.385,104.224,90.516,104.955,90.563z"/>
</svg>
